<svg xmlns="http://www.w3.org/2000/svg" width="1em" height="1em" viewBox="0 0 24 24"><path fill="currentColor" d="M14.925 14.525q.225.225.537.213T16 14.5q.225-.225.225-.537T16 13.425L14.45 11.9q.275-.425.413-.9T15 10q0-1.475-1.038-2.488T11.5 6.5q-1.425 0-2.463 1.012T8 10q0 1.475 1.038 2.488T11.5 13.5q.525 0 .988-.113T13.4 13l1.525 1.525ZM11.5 12q-.825 0-1.413-.588T9.5 10q0-.825.588-1.413T11.5 8q.8 0 1.4.588T13.5 10q0 .825-.588 1.413T11.5 12ZM4 18q-.825 0-1.413-.588T2 16V5q0-.825.588-1.413T4 3h16q.825 0 1.413.588T22 5v11q0 .825-.588 1.413T20 18H4Zm-2 3q-.425 0-.713-.288T1 20q0-.425.288-.713T2 19h20q.425 0 .713.288T23 20q0 .425-.288.713T22 21H2Z"/></svg>